# xmcd
#
# Track frame offsets:
#	180
#	9813
#	21076
#	32308
#	45957
#	59252
#	69767
#	81104
#	93024
#	102761
#	113887
#	126863
#	140162
#	153103
#	165188
#	176926
#	186431
#	195903
#	207075
#	216182
#	229534
#	239574
#	250880
#	259779
#	271389
#	283985
#	293562
#	308090
#
# Disc length: 4296 seconds
#
# Revision: 1
# Processed by: cddbd v1.4PL0 Copyright (c) Steve Scherf et al.
# Submitted via: EasyCDDAExtractor 5.0.7
#
DISCID=7310c61c
DTITLE=Various Artist - Acme Records (The Sounds Of The 50's)
DYEAR=1900
DGENRE=R&B
TTITLE0=Tempo-Tones - Ride Along
TTITLE1=Richard Lanham and The Tempo-Tones - On Your Radio
TTITLE2=Tempo-Tones - Get Yourself Another fool
TTITLE3=Richard Lanham and The Tempo-Tones - Dance Of Love
TTITLE4=Love-Letters - Walking The streets Alone
TTITLE5=Love-Letters - Owee-Nellie
TTITLE6=Nancy Lee - Meet Me At The Cross Roads
TTITLE7=Nancy Lee - So They Say
TTITLE8=Tempo-Tones - Come Into My Heart
TTITLE9=Tempo-Tones - Somewhere There Is Someone
TTITLE10=Miller Sisters - You Made A Promise
TTITLE11=Miller Sisters - Crazy Billboard Song
TTITLE12=Nancy Lee - Daddy-o Mommy-o
TTITLE13=Nancy Lee - You Asked Me Do I Love You
TTITLE14=Tempo-Tones - In My Dreams
TTITLE15=Tempo-Tones - My Boy, Sleepy Pete
TTITLE16=Miller Sisters - Let's Start Anew
TTITLE17=Miller Sisters - The Flip Skip
TTITLE18=Sunbeams - You've Got To Rock And Roll
TTITLE19=Sunbeams - Please Say You'll Be Mine
TTITLE20=Ebb-Tides - Franny Franny
TTITLE21=Ebb-Tides - Darling I Love Only You
TTITLE22=Richard Lanham and The Tempo-Tones - Wishing All The Time
TTITLE23=Richard Lanham and The Tempo-Tones - The Day I Met You
TTITLE24=Bobby Lee and Group - This Is Goodbye
TTITLE25=Bobby Lee and group - It's Not Too Late
TTITLE26=Sunbeams - Please Say You'll Be Mine (live)
TTITLE27=Sunbeams - Now And Forever (live)
EXTD=
EXTT0=
EXTT1=
EXTT2=
EXTT3=
EXTT4=
EXTT5=
EXTT6=
EXTT7=
EXTT8=
EXTT9=
EXTT10=
EXTT11=
EXTT12=
EXTT13=
EXTT14=
EXTT15=
EXTT16=
EXTT17=
EXTT18=
EXTT19=
EXTT20=
EXTT21=
EXTT22=
EXTT23=
EXTT24=
EXTT25=
EXTT26=
EXTT27=
PLAYORDER=
